<?xml version="1.0" encoding="UTF-8"?>
<svg fill="blue" version="1.1" viewBox="0 0 720 720" xmlns="http://www.w3.org/2000/svg" xmlns:xlink="http://www.w3.org/1999/xlink">
 <g transform="translate(0 -332.36)">
  <path d="m352.9 377.86-90.801 157.27h-181.6l90.801 157.2-90.801 157.27h181.6l90.801 157.27 90.866-157.27h181.6l-90.801-157.27 90.801-157.2h-181.6l-90.866-157.27z" stroke="#000"/>
  <path d="m352.91 377.96 0.032222 314.5 90.833-157.23-90.866-157.27z" fill="#fff"/>
  <path d="m625.37 535.13-272.42 157.28 181.62 0.026596 90.799-157.3z" fill="#fff"/>
  <path d="m625.44 849.66-272.45-157.22 90.787 157.26 181.66-0.038387z" fill="#fff"/>
  <path d="m352.91 1007-0.032222-314.5-90.833 157.23 90.866 157.27z" fill="#fff"/>
  <path d="m80.454 849.74 272.42-157.28-181.62-0.026596-90.799 157.3z" fill="#fff"/>
  <path d="m80.421 535.24 272.45 157.22-90.787-157.26-181.66 0.038387z" fill="#fff"/>
 </g>
</svg>
